<?xml version="1.0" encoding="utf-8"?>
<!-- Generator: Adobe Illustrator 15.1.0, SVG Export Plug-In . SVG Version: 6.00 Build 0)  -->
<!DOCTYPE svg PUBLIC "-//W3C//DTD SVG 1.1//EN" "http://www.w3.org/Graphics/SVG/1.1/DTD/svg11.dtd">
<svg version="1.1" id="Layer_1" xmlns="http://www.w3.org/2000/svg" xmlns:xlink="http://www.w3.org/1999/xlink" x="0px" y="0px"
	 width="154.506px" height="61.71px" viewBox="0 0 154.506 61.71" enable-background="new 0 0 154.506 61.71" xml:space="preserve">
<g>
	<g enable-background="new    ">
		<path d="M84.77,38.644l3.458-0.325c0.143,0.41,0.342,0.704,0.599,0.881s0.599,0.266,1.027,0.266c0.468,0,0.83-0.1,1.087-0.299
			c0.199-0.148,0.299-0.333,0.299-0.556c0-0.251-0.131-0.444-0.393-0.581c-0.189-0.097-0.688-0.217-1.498-0.359
			c-1.21-0.211-2.051-0.405-2.521-0.585s-0.867-0.483-1.189-0.911c-0.322-0.427-0.482-0.915-0.482-1.462
			c0-0.599,0.174-1.114,0.521-1.548c0.348-0.433,0.827-0.757,1.438-0.97c0.611-0.214,1.43-0.321,2.457-0.321
			c1.084,0,1.884,0.083,2.4,0.248c0.516,0.166,0.947,0.423,1.292,0.771c0.345,0.349,0.632,0.819,0.86,1.412l-3.304,0.325
			c-0.085-0.291-0.228-0.505-0.428-0.642c-0.274-0.183-0.604-0.273-0.993-0.273c-0.394,0-0.68,0.069-0.859,0.209
			s-0.27,0.309-0.27,0.509c0,0.222,0.113,0.39,0.342,0.504s0.725,0.217,1.489,0.308c1.158,0.131,2.02,0.313,2.585,0.547
			c0.564,0.234,0.996,0.567,1.297,1.001c0.299,0.433,0.449,0.909,0.449,1.428c0,0.524-0.158,1.034-0.476,1.53
			c-0.316,0.496-0.815,0.891-1.497,1.185c-0.683,0.293-1.611,0.439-2.787,0.439c-1.66,0-2.842-0.236-3.547-0.71
			S84.97,39.517,84.77,38.644z"/>
		<path d="M100.267,35.023l-3.329-0.351c0.126-0.582,0.307-1.04,0.544-1.373c0.236-0.334,0.578-0.624,1.022-0.869
			c0.319-0.177,0.759-0.313,1.317-0.411c0.56-0.097,1.164-0.146,1.814-0.146c1.045,0,1.883,0.059,2.518,0.176
			c0.633,0.117,1.16,0.361,1.582,0.731c0.297,0.257,0.531,0.621,0.703,1.092c0.17,0.471,0.256,0.92,0.256,1.348v4.014
			c0,0.429,0.027,0.764,0.082,1.006c0.054,0.243,0.172,0.552,0.354,0.929h-3.269c-0.132-0.234-0.218-0.412-0.258-0.535
			c-0.039-0.122-0.08-0.315-0.119-0.577c-0.457,0.439-0.91,0.753-1.361,0.941c-0.616,0.251-1.332,0.376-2.148,0.376
			c-1.084,0-1.906-0.251-2.469-0.753s-0.843-1.121-0.843-1.857c0-0.69,0.202-1.258,0.607-1.703c0.405-0.444,1.152-0.775,2.242-0.992
			c1.307-0.263,2.153-0.446,2.542-0.553c0.389-0.105,0.799-0.243,1.232-0.415c0-0.428-0.088-0.728-0.266-0.898
			c-0.176-0.171-0.487-0.257-0.933-0.257c-0.57,0-0.999,0.092-1.284,0.274C100.583,34.362,100.403,34.629,100.267,35.023z
			 M103.288,36.855c-0.479,0.171-0.979,0.322-1.498,0.453c-0.707,0.188-1.154,0.374-1.344,0.557
			c-0.193,0.188-0.291,0.402-0.291,0.642c0,0.274,0.096,0.498,0.287,0.672c0.191,0.175,0.473,0.262,0.844,0.262
			c0.387,0,0.748-0.095,1.082-0.283c0.334-0.188,0.57-0.417,0.711-0.688c0.139-0.271,0.209-0.623,0.209-1.057V36.855z"/>
		<path d="M119.358,41.168h-3.252v-1.472c-0.484,0.604-0.975,1.035-1.468,1.292s-1.1,0.385-1.819,0.385
			c-0.958,0-1.709-0.286-2.254-0.859c-0.545-0.574-0.818-1.457-0.818-2.649V32.08h3.501v4.998c0,0.57,0.105,0.976,0.316,1.215
			c0.211,0.24,0.508,0.359,0.89,0.359c0.417,0,0.758-0.159,1.023-0.479c0.266-0.32,0.398-0.894,0.398-1.721V32.08h3.482V41.168z"/>
		<path d="M129.25,37.608l3.312,0.377c-0.182,0.69-0.481,1.288-0.898,1.793c-0.416,0.505-0.948,0.897-1.596,1.177
			s-1.471,0.419-2.469,0.419c-0.965,0-1.768-0.09-2.41-0.269c-0.642-0.18-1.193-0.471-1.656-0.873
			c-0.461-0.401-0.824-0.873-1.086-1.415c-0.263-0.541-0.395-1.26-0.395-2.154c0-0.936,0.16-1.713,0.48-2.335
			c0.233-0.456,0.553-0.864,0.958-1.227s0.821-0.632,1.249-0.809c0.68-0.279,1.549-0.419,2.611-0.419
			c1.482,0,2.614,0.266,3.393,0.796c0.779,0.531,1.326,1.307,1.639,2.328l-3.277,0.437c-0.103-0.388-0.289-0.681-0.561-0.877
			c-0.271-0.197-0.635-0.296-1.092-0.296c-0.576,0-1.042,0.207-1.398,0.62c-0.357,0.413-0.535,1.038-0.535,1.875
			c0,0.746,0.177,1.312,0.531,1.7c0.354,0.387,0.804,0.581,1.352,0.581c0.457,0,0.84-0.117,1.151-0.352
			C128.863,38.453,129.097,38.093,129.25,37.608z"/>
		<path d="M145.253,37.488h-6.984c0.062,0.56,0.215,0.977,0.454,1.25c0.337,0.394,0.776,0.591,1.317,0.591
			c0.343,0,0.668-0.086,0.977-0.257c0.188-0.108,0.391-0.3,0.607-0.573l3.432,0.316c-0.525,0.913-1.158,1.567-1.9,1.964
			c-0.741,0.396-1.805,0.595-3.191,0.595c-1.205,0-2.151-0.17-2.842-0.509c-0.69-0.34-1.263-0.879-1.717-1.618
			c-0.453-0.738-0.68-1.607-0.68-2.605c0-1.421,0.455-2.57,1.365-3.449s2.166-1.318,3.77-1.318c1.301,0,2.328,0.197,3.082,0.591
			c0.752,0.394,1.326,0.964,1.72,1.712c0.394,0.747,0.591,1.72,0.591,2.918V37.488z M141.71,35.819
			c-0.068-0.673-0.25-1.155-0.544-1.446s-0.681-0.437-1.159-0.437c-0.555,0-0.996,0.22-1.327,0.659
			c-0.211,0.274-0.345,0.682-0.402,1.224H141.71z"/>
	</g>
</g>
<g>
	<path fill="#9B0067" d="M73.939,25.895c0.152,0.262,0.354,0.477-0.037,0.631c0.309,0.186,0.393,0.586,0.454,0.914
		c0.443,0.259,0.591,0.537,0.745,0.908c0.512-0.311,1.035-0.028,1.555,0.068c0.146-0.319,0.397-0.464,0.674-0.304
		c0.532-0.418,0.356-0.958,0.996-1.232c-0.39-0.59-0.101-1.195-0.276-1.791c-0.145,0.071-0.289,0.101-0.437-0.042
		c-0.104-0.16,0.076-0.325-0.107-0.483c-0.291,0.169-0.613-0.018-0.783-0.374c-0.482,0.196-0.968,0.176-1.456,0.027
		c0.032,0.48-0.587,0.564-0.863,0.598C74.191,25.239,74.361,25.541,73.939,25.895z"/>
	<path fill="#9B0067" d="M76.853,23.268c0.479-0.326-0.281-0.951-0.396-0.382C76.698,23.074,76.637,23.19,76.853,23.268z"/>
	<path fill="#9B0067" d="M77.958,48.927c-0.035,0.309,0.445,0.623,0.688,0.375C78.78,48.938,78.224,48.639,77.958,48.927z"/>
	<path fill="#9B0067" d="M79.724,28.558c0.325,0.584,1.043,0.65,1.508,0.214c-0.318-0.464-1-0.666-1.461-0.362
		C79.797,28.458,79.787,28.507,79.724,28.558z"/>
	<path fill="#9B0067" d="M58.041,38.525c-0.156-0.085-0.465-0.186-0.443-0.434c0.225-0.148,0.452-0.315,0.684-0.5
		c0.261,0.14,0.521,0.152,0.782,0.277c0.007,0.241,0.18,0.48-0.035,0.729c-0.175,0.189-0.357,0.008-0.532,0.154
		c0.19,0.147,0.41,0.326,0.6,0.524c-0.032,0.039-0.062,0.075-0.086,0.104c-0.061,0.066,0.084,0.14,0.05,0.303
		C58.991,39.701,57.813,39.015,58.041,38.525z M80.666,40.479l0.19-0.198c-0.19-0.354-0.181-0.277-0.59-0.377
		c-0.052-0.318-0.287-0.34-0.352-0.625c-0.289,0.135-0.58,0.154-0.879-0.273c-0.566,0.242-1.33,0.088-1.833,0.615
		c-0.265,0.278-0.241,0.83-0.663,0.887c0.01-1.648-2.801-2.606-3.519-3.866c0.497-0.263,0.996-0.401,1.492-0.66
		c0.231,0.129,0.658,0.127,0.724-0.256c-0.881-0.413-1.738,0.509-2.621,0.049c0.021-0.558-0.196-0.931-0.223-1.549
		c0.664-0.763,0.661-1.45,0.834-2.151c0.072-0.291,0.364-0.513,0.083-0.779c-0.096,0.043-0.194,0.045-0.291,0.004
		c-0.314,0.25-0.206,0.492-0.521,0.738c-0.776-0.211-1.294-1.393-1.594-2.204c-0.356,0.25-0.256,0.491-0.52,0.739
		c-0.769-0.235-0.728-0.929-1.43-1.188c-0.106-0.435,0.12-0.877-0.169-1.308c-0.06-0.597,0.436-1.206,0.209-1.799
		c-0.337,0.326-0.209,0.522-0.275,0.878c-0.075,0.406-0.331,0.988-0.363,1.367c-0.042,0.493,0.157,0.865-0.125,1.119
		c-0.385,0.349-0.84-0.052-1.362-0.169c-1.628,1.071-2.783-0.855-3.537-2.265c0.167,0.502,0.443,1.002,0.687,1.502
		c-0.052-0.002-0.09-0.038-0.127-0.072c-0.144,0.139-0.162,0.333-0.344,0.454c0.156,0.227,0.01,0.315,0.058,0.493
		c0.235-0.24,0.313-0.552,0.429-0.845c0.211,0.435,0.398,0.871,0.465,1.31c-0.433-0.041-0.865-0.059-1.297-0.005
		c0.006-0.043,0.012-0.084,0.017-0.12c-0.348-0.141-0.659-0.364-1.017-0.483c-0.036-0.044-0.082-0.087-0.137-0.13
		c0.046-0.369-0.029-0.792,0.188-1.084c0.032,0.319,0.326,0.741,0.658,0.718c0.01-0.208-0.059-0.193-0.149-0.395
		c0.165,0.145,0.407-0.369,0.161-0.254c-0.062-0.096-0.095,0.254-0.212-0.05c-0.208,0,0.026,0.199-0.183,0.199
		c-0.038-0.067-0.268-0.214-0.163-0.26c0.121-0.139,0.487,0.149,0.408-0.283c-0.123,0.064-0.217,0.066-0.268-0.027
		c0.042-0.133,0.223-0.499-0.059-0.493c0.143,0.22,0.016,0.318-0.097,0.424c-0.104-0.116-0.283-0.063-0.319-0.331
		c0.004-0.211,0.271-0.438,0.465-0.305c0.454-0.542,0.924-1.079,1.306-1.654c-0.21,0.018-0.32,0.317-0.507,0.191
		c0.082-0.103,0.246-0.168,0.118-0.366c-0.431,0.2-0.98,0.445-1.22,0.011c-0.229-0.414,0.44-1.332-0.091-1.769
		c0.042,0.503,0.139,1.109-0.397,0.988c-0.029-0.549-0.139-1.015,0.022-1.296c-0.093,0.161,0.161,0.059,0.126-0.178
		c-0.049-0.34-0.116-0.404,0.111-0.558c-0.107-0.208-0.138-0.176-0.072-0.358c-0.087,0.022-0.2,0.098-0.246,0.029
		c-0.119-0.232,0.125-0.13,0.104-0.233c-0.133-0.121-0.397,0.053-0.431-0.287c-0.132,0.659-1.066,0.867-1.744,1.177
		c-0.279-0.133-0.648-0.104-1.003,0.002c-0.083-0.311-0.134-0.587-0.53-0.757c-0.243,0.28,0.375,0.543,0.258,0.82
		c-0.154,0.071-0.309,0.147-0.463,0.227c0.006-0.076,0.026-0.145,0.025-0.223c-0.789-0.326-1.774-0.211-2.541-0.583
		c0.089-0.239,0.103-0.515,0.315-0.699c0.042,0.081,0.058,0.216,0.142,0.204c0.055-0.185-0.277-0.322-0.213-0.562
		c0.145,0.049,0.358-0.151,0.485-0.25c-0.055,0.151,0.084,0.094,0.03,0.247c0.233,0.012-0.04-0.205,0.104-0.234
		c0.04,0.186,0.174,0.247,0.233,0.105c0.042-0.323-0.642-0.293-0.791-0.215c-0.05-0.397,0.048-0.726-0.124-1.177
		c0.074-0.247,0.38-0.39,0.237-0.735c-0.281,0.166-0.607,0.173-0.868,0.238c1.594-1.094,3.174-2.556,4.741-3.614
		c1.536-1.037,2.954-2.25,4.416-3.206c0.66-0.431,1.973-0.531,1.329-1.779c-1.021-0.301-1.507,0.761-2.098,1.269
		c-3.069,2.636-6.944,4.17-9.863,6.943c-0.24-0.417-0.236-1.073-0.426-1.378c-0.046-0.726-0.949-1.367-1.199-1.801
		c-0.101-0.051-0.286,0.081-0.345-0.062c0.042-0.161-0.029-0.257,0.083-0.29c-0.168,0.029-0.241-0.157-0.354-0.252
		c0.033-0.162,0.221,0.043,0.126-0.176c-0.38-0.162-0.405,0.04-0.761,0.03c0.317,0.531,0.985,0.757,1.175,1.23
		c0.274-0.091,0.439,0.061,0.53,0.379c-0.208,0.226-0.29,0.218-0.556,0.403c0.256-0.002,0.135,0.117,0.29,0.084
		c0.262-0.053-0.088-0.095,0.07-0.155c0.148-0.079,0.365,0.215,0.297,0.273c-0.116,0.017-0.163-0.122-0.324-0.006
		c-0.138,0.792,0.743,1.174,0.817,1.816c-0.634,0.359-1.121,0.2-1.608-0.163c0.142-0.247,0.197-0.151,0.338-0.128
		c-0.066-0.36-0.215-0.469-0.087-0.741c0.218,0.033,0.238,0.198,0.284,0.409c0.265-0.068-0.232-0.478,0.209-0.466
		c-0.05-0.166-0.109-0.311-0.276-0.218c0.127,0.142,0.113,0.197-0.005,0.325c-0.095-0.205-0.248-0.282-0.501-0.133
		c0.136,0.381,0.139,0.63-0.125,0.692c0.025,0.117,0.118,0.083,0.176,0.126c-0.099,0.034-0.17,0.079-0.203,0.141
		c-0.194-0.259-0.505-0.261-0.742-0.427c-0.177-0.815-0.866-0.721-1.295-1.377c0.081-0.042,0.215-0.06,0.204-0.142
		c-0.36,0.122-0.452-0.324-0.46-0.534c0.323,0.18,0.453,0.271,0.643,0.337c0.065-0.11-0.088-0.371-0.08-0.55
		c0.271,0.083,0.661,0.245,0.672,0.583c0.157-0.004,0.294,0.037,0.353,0.251c0.118-0.071,0.134-0.188,0.218-0.275
		c-0.229,0.125-0.287-0.126-0.41-0.231l0.169-0.063c-0.209-0.321-0.925-0.021-0.806-0.597c0.035,0.044,0.222,0.244,0.212,0.049
		c-0.414-0.141-0.269-0.404-0.616-0.605c0.167-0.093,0.193,0.126,0.38-0.015c-0.233-0.104-0.608-0.407-0.565-0.302
		c0.008,0.026,0.221,0.194,0.164,0.261c-0.643-0.643-1.279-1.662-2.502-1.5c0.511,0.42,1.257,0.323,1.695,0.904
		c-0.199,0.131-0.252-0.062-0.401-0.041c0.021,0.337-0.373,0.163-0.465,0.304c0.738,0.271,0.619,1.225,1.043,1.732
		c-0.086,0.039-0.198,0.066-0.125,0.177c0.245,0.16,0.738,0.593,0.575,1.005c-0.856-0.45-1.883-0.522-2.712-1.032
		c0.094-0.099,0.039-0.262-0.037-0.438c-0.104,0.043-0.136,0.002-0.1-0.091c-0.896,0.5-2.162,0.218-3.103,0.145
		c-0.166-0.022,0.038-0.208-0.141-0.203c-0.112,0.013-0.479,0.184-0.749,0.175c-0.014-0.232-0.028-0.464-0.038-0.699
		c-0.556-0.093-0.437-0.642-1.135-0.637c-0.387,0.368-0.444,0.83-0.413,1.334c-0.568,0.068-1.138,0.055-1.402-0.174
		c0.003,0.17-0.215,0.138-0.542,0.27c-0.436,0.174-0.694,0.351-0.942,0.744c-0.022-0.147,0.275-0.389-0.016-0.38
		c-0.018,0.101-0.017,0.211-0.161,0.254c-0.417-0.181-0.904-0.205-1.348-0.326c-0.348,0.073-0.73,0.283-0.984,0.418
		c-0.64-0.789,0.019-2.092,0.957-3.073c-0.554-0.783-0.991-2.052-0.83-2.955c-1.138-0.549-1.69-1.76-3.566-1.802
		c-0.534-0.013-0.869,0.464-1.317,0.305c-0.842-0.301-0.561-1.294-1.249-1.499c0.206,0.604,0.638,1.054,0.633,1.799
		c-0.793,0.907-2.146,0.986-2.348,2.763c0.158,0.623,0.492,0.819,0.118,1.561c-0.446-0.138-0.97-0.563-1.021,0.223
		c0.984,0.465,2.261,0.819,2.224,2.244c0.399,0.121,1.077,0.053,1.026,0.477c-0.62,0.699-0.899,1.903-1.487,2.649
		c0.415,0.461,0.879,0.889,0.793,1.689c-0.47,0.633-1.543,0.375-1.793,1.333c0.051,0.316,0.167,0.589,0.57,0.668
		c0.694-0.014,0.817-0.868,1.554-0.819c0.009,0.024,0.02,0.049,0.03,0.073c-0.084-0.021-0.18-0.032-0.297-0.027
		c-1.182,1.071-1.977,2.636-3.58,3.168c-0.236-0.288,0.019-0.505,0.101-0.819c-0.425-0.175-0.243,0.426-0.597,0.343
		c-0.087-1.31-1.045-2.572-1.308-4.046c-0.259-1.449,0.264-3.381-1.155-4.164c-1.118,1.218,0.466,3.046,0.524,4.781
		c0.012,0.366-0.24,0.683-0.271,1.077c-0.08,1.003,0.514,2.38-0.368,3.007c-0.642-0.646-1.461-1.226-2.163-1.887
		c0.092-0.054,0.159-0.144,0.184-0.283c0-0.343-0.431-0.393-0.86-0.445c-0.14-0.176-0.269-0.359-0.38-0.554
		c-0.267-0.468-0.241-1.381-0.942-1.365c0.269,0.599,0.506,1.22,0.743,1.841c-0.034,0.165-0.118,0.259-0.204,0.348
		c0.064,0.091,0.244,0.218,0.461,0.324c0.396,1.023,0.815,2.027,1.386,2.914c-0.933,2.825-3.224,1.503-4.748,0.251
		c-0.586-0.483-1.231-0.761-1.54-1.021c-0.526-0.444-0.808-1.311-1.303-1.824c-0.862-0.896-1.852-1.505-2.226-2.215
		c-0.227-0.43-0.158-0.988-0.379-1.434c-0.284-0.573-1.076-1.073-1.593-1.721c-0.608-0.763-0.987-1.747-1.526-2.269
		c-0.433-0.419-1.091-0.501-1.557-0.883c-1.538-1.263-2.54-3.192-4.109-3.833c-0.488,0.113-0.716,0.56-0.714,1.3
		c0.801,1.339,2.365,2.076,3.185,3.443c0.251,0.42,0.193,1.052,0.517,1.45c0.506,0.625,1.268,0.636,1.949,1.072
		c0.825,0.524,1.28,1.583,2.073,2.334c0.42,0.4,1.018,0.52,1.42,0.869c2.313,1.998,3.704,5.088,5.825,6.817
		c-0.041,0.84,0.737,1.612,0.108,2.511c-0.536-0.242-1.368-0.25-1.573-0.75c-0.414,1.632-1.403,2.528-2.845,2.843
		c-1.364-0.68-3.371-1.983-4.924-1.713c-0.328,1.326,1.195,1.312,2.02,1.635c2.027,0.797,4.498,2.144,3.921,4.228
		c0.269,0.324,0.678-0.063,1.23,0.149c0.505,0.718-0.15,2.037-0.591,2.564c-1.503,1.795-5.629,0.786-5.543,3.344
		c2.932,2.177,4.773-2.789,8.23-1.488c0.778,0.912,1.561,2.597-0.112,3.178c-0.123,0.754,1.062,0.487,0.959,1.227
		c0.135,0.541-0.407,0.217-0.357,0.65c0.213,0.038,0.476,0.039,0.376,0.324c0.106,1.895-1.472,4.593,0.371,4.9
		c0.624-0.941,0.248-3.162,2.112-2.518c0.612,1.484-0.676,2.666-0.792,4.204c-0.368,0.662-1.773,2.377-0.641,2.974
		c1.853-1.688,1.545-6.14,4.048-6.996c0.791,0.944,1.183,3.369,1.207,4.865c0.021,1.256-1.272,4.909,0.374,6.012
		c1.636,1.095,3-1.637,2.999-2.963c-0.001-2.139-2.922-3.572-2.884-5.901c0.01-0.591,0.225-1.772,0.574-2.427
		c0.327-0.61,1.774-2.199,2.744-2.783c0.156,0.221,0.315,0.438,0.598,0.521c0.302-0.16,0.217-0.683,0.52-0.844
		c0.648-0.031,1.347-0.117,1.522,0.357c0.014,0.365-0.024,0.785,0.171,0.955c0.501,0.248,0.501-0.069,0.956-0.172
		c0.151,0.551,0.319,1.082,0.47,1.633c0.562-0.035,0.569,0.527,1.249,0.367c0.479-0.727,0.054-1.498-0.22-2.328
		c0.073-0.039,0.12-0.102,0.16-0.172c1.077,0.662,2.115,1.309,2.991,2.127c-0.002,0.098-0.037,0.209-0.104,0.256
		c0.07,0.363-0.17,0.92-0.145,1.234c-0.094,0.122-0.054,0.312-0.151,0.418c0.006-0.027-0.004-0.043-0.021-0.054
		c-0.03,0.077,0.007,0.104-0.065,0.162c0.014,0.04,0.053,0.062,0.076,0.096c-0.022,0.095-0.031,0.212-0.085,0.255
		c-0.049-0.035-0.098-0.054-0.134-0.123c-0.049,0.025,0.005,0.082-0.039,0.104c-0.073-0.008-0.135,0.006-0.169,0.045
		c0.005,0.012-0.027,0.078-0.01,0.125c0.014-0.018,0.039-0.021,0.068-0.018c0.028,0.123,0.031,0.264,0.157,0.321
		c0.001,0.257-0.232,0.429-0.221,0.675c-0.068-0.027-0.069-0.06-0.126-0.011c0.06,0.011,0.045,0.116,0.008,0.113
		c0.096,0.308-0.21,0.636-0.289,0.997c-0.025,0.117,0.024,0.207-0.103,0.267c0,0.115-0.051,0.151-0.049,0.312
		c-0.346,0.527-0.528,1.207-0.612,1.859c-0.024,0.037-0.069,0.041-0.083,0.096c-0.013,0.033,0.04,0.023,0.036,0.055
		c-0.09,0.006-0.156,0.059-0.151,0.113c0.018,0.023,0.021,0.008,0.088,0.033c0.029-0.045-0.047-0.021-0.018-0.066
		c0.036,0.014,0.04-0.021,0.08,0.001c-0.12,0.481-0.158,1.015-0.347,1.435c-0.075,0.023-0.086,0.156-0.063,0.225
		c0.061,0.029,0.088,0.076,0.138,0.109c0.023,0.227,0.034,0.463,0.195,0.602c0.001,0.031,0.025,0.045,0.015,0.082
		c-0.008,0.056-0.05,0.06-0.068,0.101c0.015,0.056,0.051,0.124,0.011,0.179c0.107-0.017,0.238,0.016,0.246,0.131
		c-0.02,0.018-0.049,0.021-0.059,0.053c0.087-0.045,0.08,0.061,0.113,0.07c0.06,0.019,0.208-0.051,0.305,0
		c0.047,0.024,0.041,0.078,0.103,0.117c0.055-0.052,0.035-0.078,0.032-0.154c0.066,0.011,0.017-0.012,0.074-0.047
		c-0.006,0.024,0.004,0.041,0.021,0.053c0.033-0.059,0.083-0.09,0.161-0.08c0.034,0.031,0.021,0.085,0.082,0.066
		c0.059-0.006-0.067-0.068-0.017-0.068c0.028,0.037,0.017-0.002,0.049-0.006c0.058,0.027-0.001,0.08,0.045,0.09
		c0.085-0.023,0.028-0.068,0.028-0.139c0.062-0.062,0.09-0.156,0.11-0.217c-0.012,0.033-0.049,0.025-0.046-0.011
		c0.028-0.042,0.109,0.011,0.167-0.03c-0.057-0.05-0.172-0.062-0.159-0.16c0.209-0.09,0.213-0.369,0.3-0.594
		c0.054-0.013,0.108-0.025,0.13-0.087c-0.009-0.039-0.077,0.021-0.089-0.032c-0.001-0.078,0.053-0.066,0.072-0.113
		c-0.074-0.09,0-0.194-0.068-0.285c0.083-0.104,0.126-0.247,0.164-0.396c0.003-0.302,0.09-0.594,0.184-0.893
		c0.067-0.215,0.11-0.432,0.179-0.645c0.024-0.076,0.053-0.156,0.08-0.234c0.038-0.674,0.071-1.35,0.141-2.021
		c0.013-0.362,0.057-0.721,0.119-1.075c0.061-0.629,0.113-1.265,0.235-1.879c0.045-0.23,0.103-0.459,0.176-0.684
		c0.224,0.268,0.432,0.551,0.619,0.859c0.505,0.828,0.565,2.299,1.953,2.183c0.559-0.923-0.327-1.7-0.995-2.065
		c-0.349-0.681-0.733-1.33-1.155-1.953c0.028-0.11,0.058-0.221,0.04-0.305c0.146-0.143,0.059-0.311,0.069-0.482
		c0.008-0.146,0.12-0.277,0.15-0.418c0.041-0.185,0.059-0.385,0.086-0.59c0.224,0.062,0.424,0.166,0.554,0.396
		c0.287,0.504,0.042,1.044-0.029,1.62c0.095-0.045,0.167-0.102,0.235-0.161c-0.066,0.132-0.137,0.262-0.213,0.388
		c0.716,0.641,1.425,1.778,1.47,2.694c1.233,0.282,2.041,1.34,3.879,0.961c0.522-0.106,0.742-0.647,1.215-0.593
		c0.889,0.104,0.836,1.138,1.552,1.181c-0.336-0.54-0.857-0.884-1.019-1.61c0.464-0.861,1.409-1.273,1.64-2.353
		c0.397,0.032,0.783,0.042,1.157-0.015c-0.068,0.014-0.111-0.027-0.155-0.069c0.151-0.812,0.868-0.64,1.83-0.951
		c0.249,0.278,0.562,0.411,0.967,0.343c0.19-0.133,0.157-0.365,0.4-0.474c0.242,0.006,0.485,0.241,0.495,0.456
		c-0.24,0.131-0.539,0.131-0.462,0.304c0.248-0.043,0.255-0.194,0.484-0.247c-0.066,0.139,0.101,0.125,0.128,0.338
		c-0.433,0.285-0.854,0.344-1.331,0.568c0.036-0.01,0.07-0.018,0.078,0.036c-0.033,0.015-0.063,0.032-0.035,0.075
		c0.532-0.223,1.141-0.377,1.647-0.754c-0.181,0.059-0.26-0.111-0.318-0.328c0.209,0.127,0.401-0.344,0.514-0.004
		c0.029,0.123-0.244,0.109-0.161,0.256c0.24-0.068,0.667,0.092,0.472-0.114c0.26,0.123,0.536-0.112,0.733-0.278
		c-0.222-0.176-0.605-0.943-0.47-1.238c0.343,0.09,0.526-0.017,0.987-0.116c0.235-0.753,1.201-1.498,2.1-1.899
		c0.108,0.098,0.218,0.193,0.309,0.29c-0.524,0.654-1.564,1.062-2.231,1.735c0.261-0.096,0.51-0.163,0.719-0.143
		c0.019,0.271-0.37,0.361-0.414,0.605c0.402-0.234,0.781-0.51,1.148-0.796c0.246,0.147,0.463,0.394,0.52,0.639
		c-0.152,0.196-0.256,0.394-0.378,0.589c0.23,0.477,0.204,1.068,0.755,1.396c-0.02,0.274-0.409,0.558-0.325,0.829
		c0.265,0.301,0.515-0.137,0.78,0.181c-0.027,0.261-0.607,0.528-0.277,0.783c0.262,0.127,0.513-0.313,0.771-0.306
		c0.518,0.289,0.646,0.638,1.038,0.998c-0.014,0.131-0.134,0.262-0.089,0.392c0.114-0.06,0.052-0.347,0.238-0.247
		c0.2,0.206,0.02,0.42,0.352,0.624c0.198-0.214,0.25-0.457,0.523-0.543c1.004,0.858,1.975,0.032,2.962-0.007
		c0.71,0.472,0.773,1.215,1.192,1.531c-0.074-0.273-0.355-0.543-0.257-0.822c0.231-0.028,0.541,0.164,0.628-0.155
		c-0.297-0.321-0.586-0.218-0.878-0.274c-0.055-0.258-0.42-0.511-0.306-0.771c0.3-0.425,0.61-0.3,0.916-0.356
		c0.194-0.277,0.137-0.553,0.421-0.832c0.224-0.164,0.458,0.246,0.681-0.014c0.18-0.214-0.222-0.416-0.255-0.626
		c0.286-0.423,0.41-0.374,0.764-0.694c-0.243-0.416-0.413-0.834,0.073-1.263c-0.333-0.433-0.572-0.864-0.073-1.31
		c0.03-0.211-0.224-0.418-0.156-0.629c0.072,0.039,0.377-0.051,0.287-0.201c-0.399,0.195-0.754-0.575-0.792-0.858
		c-0.23-0.147-0.451,0.085-0.684-0.181c0.07-0.114,0.014-0.227,0.14-0.344c0.568,0.099,1.148,0.853,1.718,0.988
		c0.507-0.533,0.762-1.298,1.574-1.533c0.049,0.049,0.097,0.016,0.146,0.045c-0.002,0.164,0.088,0.322,0.3,0.48
		c-0.16,1.031,0.585,1.775,0.779,2.753c0.238-0.88-1.143-2.146,0.232-3.208c-0.25-0.389-0.687,0.199-0.779-0.181
		c0.496-0.294,1.003,0.048,1.503-0.077c1.527,0.807,1.253,2.643,2.78,3.348c1.648-1.043-1.09-3.138-0.224-4.219
		c0.536-0.669,0.908,0.053,1.462,0.264c0.257-0.508-0.622-0.77-0.558-1.203c0.397-0.455,0.809-0.039,1.215,0.025
		c0.384-0.559,0.804-0.223,1.305-0.363c0.129-0.375-0.404-0.738-0.167-1.115c0.646-0.131,1.839-0.594,2.047,0.449
		c0.502,0.045,0.47,0.469,0.501,0.864c0.388-0.05,0.472,0.253,0.689,0.569c0.741-0.11,1.852,0.33,2.271-0.674
		c0.207-0.182,0.42-0.024,0.626-0.254C80.562,41.744,81.099,41.102,80.666,40.479z M52.421,17.588
		c-0.111-0.057-0.242-0.295-0.206-0.373c0.174-0.041,0.21,0.225,0.353,0.253C52.638,17.669,52.336,17.419,52.421,17.588z
		 M56.867,41.546c-0.005-0.082-0.012-0.162-0.02-0.241c0.241,0.038,0.481,0.081,0.722,0.108
		C57.383,41.483,57.156,41.524,56.867,41.546z M58.759,42.119l0.225-0.084c-0.026-0.158-0.054-0.22-0.037-0.438
		c-0.17,0.066-0.358,0.174-0.402-0.041c-0.133,0.049-0.129,0.158-0.317,0.186c0.059-0.273-0.134-0.029-0.233-0.104
		c0.063-0.071,0.123-0.144,0.183-0.216c0.09-0.008,0.18-0.022,0.27-0.047c-0.062-0.013-0.128-0.024-0.195-0.039
		c0.421-0.498,0.813-1.012,1.224-1.516c0.147,0.348,0.114,0.727-0.309,1.105c0.2,0.357,0.388-0.03,0.586,0.183
		c0.073,0.418-0.239,1.031-0.658,1.552C58.988,42.473,58.877,42.285,58.759,42.119z M62.227,25.91
		c0.032,0.061,0.074,0.122,0.121,0.182c-0.08,0.035-0.162,0.079-0.269,0.142C62.082,26.104,62.078,25.972,62.227,25.91z
		 M60.932,30.855c0.022-0.016,0.042-0.033,0.062-0.05c0.009,0.037,0.013,0.073,0.019,0.109
		C60.987,30.894,60.961,30.875,60.932,30.855z M57.27,37.958c-0.065-0.082-0.157-0.144-0.121-0.256
		c0.738-0.312,1.117-0.787,1.536-1.242c-0.025,0.197-0.033,0.394,0.023,0.59C58.23,37.395,57.75,37.68,57.27,37.958z M61.814,29.104
		c0.053,0.218,0.093,0.531-0.004,0.691c-0.197-0.169-0.322-0.361-0.419-0.567c0.002-0.009,0.004-0.021,0.007-0.031
		C61.548,29.141,61.712,29.053,61.814,29.104z M62.754,25.977c-0.089,0.018-0.161,0.034-0.225,0.051
		c-0.02-0.039-0.041-0.078-0.061-0.118C62.579,25.855,62.714,25.806,62.754,25.977z M55.425,21.604
		c-0.013,0.056-0.024,0.115,0.008,0.191c-0.177,0.014-0.116,0.133-0.261,0.163C55.112,21.774,55.207,21.661,55.425,21.604z
		 M54.431,19.661c0.268,0.015,0.211,0.344,0.361,0.442c-0.001-0.187-0.009-0.377,0.132-0.5c0.366,0.164,0.899,1.324,0.232,1.458
		c-0.271-0.369-1.469,0.143-1.167-0.524c-0.131-0.208-0.114-0.429-0.078-0.659c0.191-0.108,0.382-0.224,0.572-0.347
		C54.462,19.568,54.444,19.61,54.431,19.661z M49.671,17.986c-0.011,0.288-0.44-0.164-0.495-0.456
		C49.605,17.498,49.567,17.965,49.671,17.986z M39.054,16.664c-0.108,0.069-0.164,0.018-0.247,0.03
		c-0.008-0.082,0.065-0.127,0.049-0.211C38.96,16.458,39.021,16.53,39.054,16.664z M36.744,17.54
		c-0.068,0.044-0.164,0.132-0.268,0.223c-0.058-0.006-0.111-0.012-0.16-0.019C36.443,17.653,36.564,17.562,36.744,17.54z
		 M36.603,17.337c-0.039,0.029-0.047,0.071-0.013,0.133c-0.194,0.042-0.372,0.126-0.542,0.219c-0.372-0.097-0.65-0.237-0.846-0.413
		C35.772,17.03,36.219,16.888,36.603,17.337z M33.937,16.87c0.286,0.038,0.557,0.199,0.808,0.422
		c-0.015,0.016,0.083,0.008-0.117,0.277c0.118-0.009,0.188-0.082,0.242-0.157c0.191,0.19,0.367,0.416,0.526,0.648
		c-0.13,0.065-0.262,0.117-0.399,0.142c0.031,0.208,0.243,0.014,0.312,0.139c-0.095,0.044-0.158,0.08-0.208,0.114
		c-0.319-0.507-0.525-1.249-1.35-1.341C33.758,16.954,33.826,16.88,33.937,16.87z M35.131,47.9c-0.028-0.292-0.037-0.6-0.021-0.927
		c0.138,0.054,0.26,0.142,0.383,0.231c0.08,0.141,0.181,0.237,0.297,0.308c-0.055,0.288-0.112,0.567-0.183,0.823
		c0.042,0.022,0.023,0.084,0.039,0.123c0.001,0.018-0.006,0.023-0.014,0.028C35.469,48.289,35.304,48.091,35.131,47.9z
		 M54.961,47.651c0.088-0.071,0.172-0.142,0.258-0.213c-0.04,0.071-0.087,0.144-0.149,0.213C55.036,47.656,55,47.654,54.961,47.651z
		 M62.155,44.949c-0.296-0.056-0.36-0.459-0.207-0.677C62.146,44.371,62.427,44.701,62.155,44.949z M67.498,45.042
		c0.151,0.306-0.156,0.619-0.226,0.926C67.087,45.673,66.993,45.052,67.498,45.042z"/>
	<path fill="#9B0067" d="M59.971,55.423c-0.26,0.293,0.203,0.791,0.356,0.918C60.46,56.033,60.172,55.729,59.971,55.423z"/>
	<path fill="#9B0067" d="M64.27,51.656c-0.1,0.598,0.53,0.727,0.996,1.342C65.434,52.542,64.725,51.949,64.27,51.656z"/>
	<path fill="#9B0067" d="M56.766,55.388c0.312-0.523,0.52-1.047,0.553-1.564C56.999,54.348,56.823,54.869,56.766,55.388z"/>
	<path fill="#9B0067" d="M0.917,54.253c0.327,0.139,1.383,0.593,1.4-0.106C2.07,53.946,0.88,53.595,0.917,54.253z"/>
	<path fill="#9B0067" d="M6.929,53.88c1.352,0.164,2.418-1.195,1.871-2.824C6.307,48.149,3.721,53.488,6.929,53.88z"/>
	<path fill="#9B0067" d="M16.205,20.053c0.809,1.429,1.207,3.837,2.504,4.471c-0.474-0.578-0.619-1.412-0.996-2.066
		c-0.09-0.473,0.101-0.46-0.02-0.973C16.887,21.356,16.833,19.524,16.205,20.053z"/>
	<path fill="#9B0067" d="M11.468,17.947c0.492,0.44,0.569,1.205,1.2,1.536C12.781,18.648,11.863,17.973,11.468,17.947z"/>
	<path fill="#9B0067" d="M13.719,43.751c0.701-0.264,1.706-0.139,2.167-0.707C15.214,43.242,13.775,43.292,13.719,43.751z"/>
	<path fill="#9B0067" d="M-3.414,41.443c0.6-0.057,0.927-0.298,0.784-0.859C-3.231,40.639-3.51,40.914-3.414,41.443z"/>
	<path fill="#9B0067" d="M4.121,9.973C3.36,9.331,3.096,8.302,2.322,7.67C2.633,8.582,3.452,9.753,4.121,9.973z"/>
	<path fill="#9B0067" d="M0.187,28.498C-0.746,30.276,2.215,28.87,0.187,28.498L0.187,28.498z"/>
	<path fill="#9B0067" d="M8.609,15.238C8.24,14.991,8.303,14.406,7.753,14.3C7.797,14.725,8.446,15.319,8.609,15.238z"/>
	<path fill="#9B0067" d="M43.996,14.403c-0.068-0.034-0.405,0.017-0.395,0.151C43.702,14.515,43.987,14.581,43.996,14.403z"/>
	<path fill="#9B0067" d="M46.531,13.442c-0.213,0.168-0.397-0.256-0.417,0.093C46.224,13.511,46.485,13.671,46.531,13.442z"/>
	<path fill="#9B0067" d="M50.366,14.888c-0.06-0.204,0.263,0.062,0.204-0.142c-0.209,0.058,0.074-0.138-0.029-0.247
		c0.115,0.088,0.198,0.252,0.388,0.175c-0.062-0.172-0.202-0.174-0.296-0.274l-0.282,0.108
		C50.569,14.703,50.178,14.86,50.366,14.888z"/>
	<path fill="#9B0067" d="M52.302,16.086c0.104,0.32,0.393,0.235,0.621,0.28c-0.063-0.186,0.126-0.255,0.176-0.389
		c-0.18-0.035-0.221-0.317-0.545-0.245c-0.105,0.314,0.27,0.249,0.363,0.443c-0.058,0.021-0.05,0.071-0.092,0.099
		C52.666,16.178,52.577,15.925,52.302,16.086z"/>
	<path fill="#9B0067" d="M43.732,13.537c-0.042-0.259-0.443-0.253-0.501-0.132C43.422,13.394,43.472,13.699,43.732,13.537z"/>
	<path fill="#9B0067" d="M38.86,15.642c-0.053-0.154-0.137-0.077-0.086-0.225c-0.265,0.306-0.765,0.242-0.837,0.51
		C38.29,15.695,38.421,15.86,38.86,15.642z"/>
	<path fill="#9B0067" d="M37.578,16c-0.382,0.161-0.859,0.145-1.049,0.462C36.847,16.443,37.424,16.238,37.578,16z"/>
	<path fill="#9B0067" d="M42.551,14.5c-0.126,0.075-0.161-0.056-0.303,0.051C42.302,14.792,42.548,14.642,42.551,14.5z"/>
	<path fill="#9B0067" d="M42.714,14.761c0.136-0.11,0.389-0.167,0.464-0.305c-0.067-0.035-0.404,0.015-0.395,0.149
		c0.031-0.012,0.082,0.022,0.022,0.057C42.767,14.691,42.694,14.705,42.714,14.761z"/>
	<path fill="#9B0067" d="M63.271,28.358c-0.011-0.083,0.039-0.139-0.029-0.246l-0.169,0.063
		C63.124,28.271,63.123,28.48,63.271,28.358z"/>
	<path fill="#9B0067" d="M49.393,16.739c0.126,0.132,0.228,0.325,0.466,0.21C49.747,16.783,49.59,16.713,49.393,16.739z"/>
	<path fill="#9B0067" d="M53.195,15.555l0.226-0.086c0-0.217-0.334-0.214-0.346-0.062C53.145,15.391,53.17,15.472,53.195,15.555z"/>
	<path fill="#9B0067" d="M63.197,29.352c-0.049-0.287,0.273-0.405,0.103-0.748c-0.306,0.144-0.228,0.458-0.393,0.665
		C63.069,29.152,63.08,29.372,63.197,29.352z"/>
	<path fill="#9B0067" d="M65.256,25.608c-0.141,0.061-0.188,0.165-0.14,0.311C65.368,26.008,65.531,25.649,65.256,25.608z"/>
	<path fill="#9B0067" d="M60.97,20.081c-0.233,0.331-0.72,0.548-0.956,0.878c0.003,0.441,0.275,0.363,0.446,0.669
		c0.192-0.325,0.577,0.006,0.698-0.201c-0.077,0-0.15-0.012-0.211-0.048c0.353-0.09,0.111-0.647,0.414-0.608
		c-0.07-0.311-0.133-0.534-0.256-0.676C61.055,20.098,60.992,20.134,60.97,20.081z"/>
	<path fill="#9B0067" d="M64.127,25.521c-0.172-0.354,0.288-1.31-0.371-1.149C64.079,24.829,63.632,25.417,64.127,25.521z"/>
	<path fill="#9B0067" d="M47.708,51.207c-0.032,0.012-0.047,0.069,0.021,0.057c-0.061-0.303,0.548-0.053,0.5-0.383
		c-0.167-0.02-0.171,0.254-0.282,0.106c0.155-0.038,0.101-0.173,0.083-0.288c-0.098-0.06-0.143-0.232-0.311-0.141
		c-0.07,0.154,0.119,0.262,0.206,0.373c-0.174-0.012-0.291,0.232-0.338,0.128l-0.065-0.169c0.063-0.033,0.164-0.053,0.148-0.121
		c-0.097,0.042-0.18,0.055-0.247,0.029c0.169,0.232,0.001,0.312-0.019,0.459C47.498,51.257,47.67,51.082,47.708,51.207z"/>
	<path fill="#9B0067" d="M52.894,48.402c0.102-0.053,0.148,0.018,0.248-0.027c-0.033-0.078-0.021-0.135-0.008-0.191
		C52.99,48.227,52.855,48.277,52.894,48.402z"/>
	<path fill="#9B0067" d="M50.906,50.637c-0.395,0.071-0.869-0.255-1.021,0.194C50.259,50.61,50.785,50.968,50.906,50.637z"/>
	<path fill="#9B0067" d="M47.609,16.963c-0.126,0.006-0.315-0.102-0.282,0.109C47.454,17.066,47.641,17.174,47.609,16.963z"/>
	<path fill="#9B0067" d="M48.88,50.054c-0.083-0.25-0.761,0.016-0.753,0.221C48.347,50.371,48.667,50.205,48.88,50.054z"/>
	<path fill="#9B0067" d="M50.338,17.024c0.231,0.455,0.446,0.947,0.668,1.422c0.294-0.412-0.61-1.091-0.372-1.373
		C50.494,17.162,50.535,17.007,50.338,17.024z"/>
	<path fill="#9B0067" d="M49.469,50.925c-0.069,0.017-0.156,0.07-0.19,0.008c-1.033,0.253-0.334,0.249,0.021,0.057
		C49.299,51.14,49.696,50.875,49.469,50.925z"/>
	<path fill="#9B0067" d="M46.868,51.205c0.024,0.264,0.53,0.057,0.472-0.115C47.164,51.169,47.064,51.08,46.868,51.205z"/>
	<path fill="#9B0067" d="M50.634,17.073c0.023-0.015,0.05-0.035,0.085-0.064C50.68,17.027,50.654,17.049,50.634,17.073z"/>
	<path fill="#9B0067" d="M49.497,50.658c-0.295-0.123-0.652,0.055-0.866,0.264C48.939,50.72,49.358,50.824,49.497,50.658z"/>
	<path fill="#9B0067" d="M50.333,17.349c-0.184-0.11-0.307-0.355-0.565-0.301c0.076,0.211,0.192,0.334,0.304,0.463
		C50.209,17.48,50.285,17.421,50.333,17.349z"/>
	<path fill="#9B0067" d="M50.449,18.335c0.083-0.033,0.309,0.123,0.303-0.049c-0.077-0.165-0.164-0.858-0.659-0.719
		c0.17,0.247,0.293,0.596,0.524,0.705C50.548,18.288,50.452,18.22,50.449,18.335z"/>
	<path fill="#9B0067" d="M51.43,16.675c0.097-0.042,0.181-0.054,0.247-0.03c0.008-0.2-0.191-0.346-0.326-0.519
		c-0.021,0.192-0.031,0.392,0.171,0.45C51.482,16.605,51.411,16.62,51.43,16.675z"/>
	<path fill="#9B0067" d="M29.023,7.541c-0.229-0.28-0.488-1.148-0.788-0.991C28.463,6.832,28.722,7.699,29.023,7.541z"/>
	<path fill="#9B0067" d="M23.833,1.092c-1.249,0.502-0.856,2.526-1.078,3.427c0.671,0.406,1.241,0.877,1.359,1.658
		c0.677-0.326,1.323-0.016,1.86,0.497c0.476-0.624,1.473-0.479,2.12-0.849c-0.171-0.489,0.543-1.155,0.742-1.673
		c0.109-1.287-0.584-2.028-0.643-3.199C27.078,1.02,26.67,0.699,26.141,0c-0.485,0.793-1.654,0.771-2.421,0.232
		C23.574,0.644,24.075,0.618,23.833,1.092z"/>
	<path fill="#9B0067" d="M52.11,59.936c1.104-0.769,0.27-2.651,0.284-3.58c-0.744-0.245-1.406-0.578-1.694-1.313
		c-0.588,0.471-1.286,0.312-1.925-0.067c-0.323,0.716-1.328,0.797-1.876,1.304c0.276,0.438-0.271,1.245-0.349,1.797
		c0.181,1.276,1.023,1.846,1.343,2.975c1.071-0.315,1.541-0.094,2.214,0.47c0.295-0.881,1.44-1.121,2.307-0.771
		C52.464,60.316,51.981,60.455,52.11,59.936z"/>
	<path fill="#9B0067" d="M45.609,54.812c0.285,0.223,0.733,1.01,0.99,0.788C46.314,55.378,45.867,54.591,45.609,54.812z"/>
</g>
<g enable-background="new    ">
	<path fill="#FFFFFF" d="M19.036,38.578l2.581-0.242c0.106,0.307,0.255,0.525,0.447,0.658c0.191,0.132,0.447,0.197,0.767,0.197
		c0.349,0,0.62-0.074,0.811-0.223c0.149-0.11,0.224-0.249,0.224-0.415c0-0.187-0.098-0.331-0.294-0.434
		c-0.141-0.072-0.513-0.161-1.118-0.268c-0.903-0.157-1.53-0.303-1.881-0.438c-0.351-0.134-0.647-0.36-0.888-0.68
		c-0.241-0.318-0.361-0.683-0.361-1.091c0-0.446,0.13-0.832,0.39-1.155s0.617-0.564,1.073-0.724c0.456-0.16,1.066-0.239,1.833-0.239
		c0.809,0,1.406,0.062,1.792,0.185c0.385,0.124,0.707,0.315,0.964,0.575c0.257,0.26,0.472,0.611,0.642,1.054l-2.466,0.243
		c-0.064-0.218-0.17-0.377-0.319-0.479c-0.205-0.136-0.452-0.204-0.741-0.204c-0.293,0-0.508,0.052-0.642,0.156
		c-0.134,0.104-0.201,0.23-0.201,0.379c0,0.166,0.085,0.292,0.255,0.377s0.541,0.161,1.111,0.229
		c0.864,0.098,1.507,0.234,1.929,0.408c0.421,0.175,0.744,0.424,0.968,0.747s0.335,0.679,0.335,1.065
		c0,0.392-0.118,0.772-0.355,1.143c-0.236,0.37-0.609,0.664-1.118,0.884c-0.509,0.219-1.202,0.328-2.079,0.328
		c-1.239,0-2.122-0.177-2.647-0.53C19.522,39.732,19.185,39.23,19.036,38.578z"/>
	<path fill="#FFFFFF" d="M27.167,37.089c0-1.034,0.349-1.887,1.047-2.558c0.699-0.671,1.642-1.006,2.83-1.006
		c1.358,0,2.384,0.394,3.079,1.182c0.558,0.634,0.837,1.416,0.837,2.344c0,1.044-0.346,1.898-1.038,2.564
		c-0.692,0.667-1.649,1-2.871,1c-1.09,0-1.972-0.276-2.645-0.83C27.58,39.1,27.167,38.202,27.167,37.089z M29.773,37.083
		c0,0.604,0.123,1.052,0.368,1.341c0.245,0.29,0.552,0.435,0.923,0.435c0.375,0,0.682-0.143,0.923-0.428s0.361-0.743,0.361-1.373
		c0-0.588-0.121-1.025-0.364-1.312c-0.243-0.288-0.543-0.432-0.901-0.432c-0.379,0-0.692,0.146-0.939,0.438
		S29.773,36.487,29.773,37.083z"/>
	<path fill="#FFFFFF" d="M41.271,37.805l2.472,0.281c-0.137,0.515-0.36,0.961-0.671,1.338c-0.311,0.377-0.708,0.67-1.191,0.878
		c-0.483,0.209-1.098,0.313-1.843,0.313c-0.72,0-1.319-0.067-1.798-0.201c-0.479-0.134-0.891-0.351-1.236-0.65
		c-0.345-0.301-0.615-0.652-0.811-1.057s-0.294-0.94-0.294-1.608c0-0.697,0.119-1.278,0.358-1.742
		c0.174-0.34,0.413-0.646,0.715-0.916c0.302-0.27,0.613-0.471,0.933-0.603c0.506-0.209,1.156-0.312,1.948-0.312
		c1.107,0,1.951,0.197,2.533,0.594c0.581,0.396,0.989,0.975,1.223,1.737l-2.447,0.326c-0.077-0.29-0.216-0.508-0.418-0.655
		c-0.203-0.146-0.474-0.221-0.814-0.221c-0.43,0-0.778,0.154-1.044,0.463c-0.266,0.308-0.399,0.774-0.399,1.399
		c0,0.557,0.132,0.979,0.396,1.269s0.601,0.434,1.009,0.434c0.341,0,0.627-0.087,0.859-0.262
		C40.982,38.435,41.156,38.167,41.271,37.805z"/>
	<path fill="#FFFFFF" d="M45.033,31.098h2.6v1.77h-2.6V31.098z M45.033,33.679h2.6v6.783h-2.6V33.679z"/>
	<path fill="#FFFFFF" d="M51.664,35.876l-2.484-0.263c0.093-0.434,0.229-0.775,0.405-1.024s0.431-0.466,0.764-0.648
		c0.238-0.132,0.566-0.234,0.983-0.307s0.869-0.108,1.354-0.108c0.779,0,1.405,0.043,1.878,0.131
		c0.473,0.087,0.866,0.27,1.182,0.546c0.221,0.191,0.396,0.463,0.523,0.814c0.128,0.352,0.192,0.687,0.192,1.006v2.996
		c0,0.319,0.02,0.569,0.061,0.75c0.041,0.182,0.129,0.412,0.265,0.693h-2.44c-0.098-0.175-0.162-0.308-0.192-0.399
		s-0.06-0.235-0.089-0.431c-0.341,0.328-0.679,0.562-1.016,0.702c-0.46,0.188-0.994,0.281-1.603,0.281
		c-0.809,0-1.424-0.188-1.843-0.562c-0.42-0.374-0.629-0.836-0.629-1.386c0-0.516,0.151-0.939,0.454-1.271
		c0.302-0.332,0.86-0.579,1.673-0.74c0.975-0.196,1.607-0.334,1.897-0.412c0.289-0.079,0.596-0.183,0.919-0.31
		c0-0.32-0.066-0.543-0.198-0.671c-0.132-0.128-0.364-0.192-0.696-0.192c-0.426,0-0.745,0.068-0.958,0.205
		C51.9,35.382,51.766,35.583,51.664,35.876z M53.918,37.243c-0.357,0.128-0.73,0.241-1.118,0.339
		c-0.528,0.141-0.862,0.279-1.003,0.415c-0.145,0.141-0.217,0.301-0.217,0.479c0,0.204,0.071,0.371,0.214,0.501
		c0.143,0.13,0.352,0.195,0.629,0.195c0.29,0,0.559-0.07,0.808-0.211s0.426-0.312,0.53-0.515c0.104-0.202,0.156-0.465,0.156-0.788
		V37.243z"/>
	<path fill="#FFFFFF" d="M58.108,31.098h2.606v9.364h-2.606V31.098z"/>
</g>
</svg>
